<?xml version="1.0" encoding="UTF-8"?>
<!DOCTYPE svg PUBLIC "-//W3C//DTD SVG 1.1//EN" "http://www.w3.org/Graphics/SVG/1.1/DTD/svg11.dtd">
<svg xmlns="http://www.w3.org/2000/svg" version="1.1" width="116px" height="229px" style="shape-rendering:geometricPrecision; text-rendering:geometricPrecision; image-rendering:optimizeQuality; fill-rule:evenodd; clip-rule:evenodd" xmlns:xlink="http://www.w3.org/1999/xlink">
<g><path style="opacity:0.72" fill="#c5cacb" d="M 54.5,-0.5 C 55.1667,-0.5 55.8333,-0.5 56.5,-0.5C 55.1667,0.833333 53.8333,2.16667 52.5,3.5C 51.1667,5.5 49.5,7.16667 47.5,8.5C 46.391,8.55688 45.391,8.89022 44.5,9.5C 46.244,7.2496 48.244,5.08294 50.5,3C 49.5,2.66667 48.5,2.33333 47.5,2C 50.1909,1.84421 52.5242,1.01088 54.5,-0.5 Z"/></g>
<g><path style="opacity:0.314" fill="#e5e5e5" d="M 65.5,4.5 C 68.1092,5.44306 70.1092,7.10973 71.5,9.5C 69.2163,9.02484 67.2163,8.02484 65.5,6.5C 65.5,5.83333 65.5,5.16667 65.5,4.5 Z"/></g>
<g><path style="opacity:0.027" fill="#fefffe" d="M 42.5,7.5 C 43.8333,8.16667 43.8333,8.16667 42.5,7.5 Z"/></g>
<g><path style="opacity:0.333" fill="#b3b4b3" d="M 35.5,12.5 C 36.8333,13.1667 36.8333,13.1667 35.5,12.5 Z"/></g>
<g><path style="opacity:0.024" fill="#7f807f" d="M 32.5,14.5 C 33.8333,15.1667 33.8333,15.1667 32.5,14.5 Z"/></g>
<g><path style="opacity:1" fill="#595958" d="M 57.5,34.5 C 57.5,36.8333 57.5,39.1667 57.5,41.5C 50.1667,41.5 42.8333,41.5 35.5,41.5C 35.1667,41.5 34.8333,41.5 34.5,41.5C 33.5,41.5 32.5,41.5 31.5,41.5C 38.4352,29.237 45.7685,17.237 53.5,5.5C 54.8846,4.42643 56.0513,3.09309 57,1.5C 57.4998,12.495 57.6665,23.495 57.5,34.5 Z"/></g>
<g><path style="opacity:1" fill="#6c6c6c" d="M 64.5,9.5 C 69.7516,19.6781 75.7516,29.3447 82.5,38.5C 82.4142,39.4959 82.7476,40.3292 83.5,41C 81.5273,41.4955 79.5273,41.6621 77.5,41.5C 77.1667,41.5 76.8333,41.5 76.5,41.5C 70.1667,41.5 63.8333,41.5 57.5,41.5C 57.5,39.1667 57.5,36.8333 57.5,34.5C 58.1666,24.3255 58.8333,13.9922 59.5,3.5C 61.1851,5.57073 62.8518,7.57073 64.5,9.5 Z"/></g>
<g><path style="opacity:1" fill="#8e8e8e" d="M 47.5,8.5 C 40.186,16.8126 32.186,24.4792 23.5,31.5C 23.189,30.5222 22.5223,29.8555 21.5,29.5C 19.736,31.2776 17.736,32.6109 15.5,33.5C 24.5589,24.7753 34.2255,16.7753 44.5,9.5C 45.391,8.89022 46.391,8.55688 47.5,8.5 Z"/></g>
<g><path style="opacity:1" fill="#484848" d="M 52.5,3.5 C 53.3382,3.84171 53.6716,4.50838 53.5,5.5C 45.7685,17.237 38.4352,29.237 31.5,41.5C 28.1667,41.5 24.8333,41.5 21.5,41.5C 21.1667,41.5 20.8333,41.5 20.5,41.5C 18.4727,41.6621 16.4727,41.4955 14.5,41C 15.3805,40.2917 16.0472,39.4584 16.5,38.5C 19.1667,36.5 21.5,34.1667 23.5,31.5C 32.186,24.4792 40.186,16.8126 47.5,8.5C 49.5,7.16667 51.1667,5.5 52.5,3.5 Z"/></g>
<g><path style="opacity:1" fill="#9c9c9b" d="M 56.5,-0.5 C 57.8333,-0.5 59.1667,-0.5 60.5,-0.5C 62.3603,0.938669 64.027,2.60534 65.5,4.5C 65.5,5.16667 65.5,5.83333 65.5,6.5C 64.6365,5.53705 63.9698,5.53705 63.5,6.5C 64.1272,7.41683 64.4606,8.41683 64.5,9.5C 62.8518,7.57073 61.1851,5.57073 59.5,3.5C 58.8333,13.9922 58.1666,24.3255 57.5,34.5C 57.6665,23.495 57.4998,12.495 57,1.5C 56.0513,3.09309 54.8846,4.42643 53.5,5.5C 53.6716,4.50838 53.3382,3.84171 52.5,3.5C 53.8333,2.16667 55.1667,0.833333 56.5,-0.5 Z"/></g>
<g><path style="opacity:1" fill="#6f706f" d="M 23.5,31.5 C 21.5,34.1667 19.1667,36.5 16.5,38.5C 14.5,38.5 13.5,39.5 13.5,41.5C 11.4727,41.6621 9.4727,41.4955 7.5,41C 8.05596,40.6174 8.38929,40.1174 8.5,39.5C 11.0892,38.5806 13.0892,36.914 14.5,34.5C 14.5,33.8333 14.8333,33.5 15.5,33.5C 17.736,32.6109 19.736,31.2776 21.5,29.5C 22.5223,29.8555 23.189,30.5222 23.5,31.5 Z"/></g>
<g><path style="opacity:1" fill="#848484" d="M 65.5,6.5 C 67.2163,8.02484 69.2163,9.02484 71.5,9.5C 71.4208,10.9305 71.7542,12.2638 72.5,13.5C 82.2087,22.542 91.542,31.8753 100.5,41.5C 95.1667,41.5 89.8333,41.5 84.5,41.5C 84.7148,39.8212 84.0481,38.8212 82.5,38.5C 75.7516,29.3447 69.7516,19.6781 64.5,9.5C 64.4606,8.41683 64.1272,7.41683 63.5,6.5C 63.9698,5.53705 64.6365,5.53705 65.5,6.5 Z"/></g>
<g><path style="opacity:0.816" fill="#afafad" d="M 14.5,34.5 C 13.0892,36.914 11.0892,38.5806 8.5,39.5C 9.91083,37.086 11.9108,35.4194 14.5,34.5 Z"/></g>
<g><path style="opacity:1" fill="#adadac" d="M 71.5,9.5 C 84.1508,19.4867 96.4841,29.82 108.5,40.5C 106.052,41.4731 103.385,41.8064 100.5,41.5C 91.542,31.8753 82.2087,22.542 72.5,13.5C 71.7542,12.2638 71.4208,10.9305 71.5,9.5 Z"/></g>
<g><path style="opacity:1" fill="#a9aeb3" d="M 57.5,42.5 C 63.5451,42.3032 69.5451,42.6365 75.5,43.5C 75.5,44.8333 75.5,46.1667 75.5,47.5C 74.5,47.5 73.5,47.5 72.5,47.5C 72.7845,49.4147 72.4511,51.0813 71.5,52.5C 70.3682,52.8966 70.0349,54.8966 70.5,58.5C 65.9466,59.2016 62.6133,61.7016 60.5,66C 63.8168,66.4983 67.1501,66.665 70.5,66.5C 70.5,74.5 70.5,82.5 70.5,90.5C 68.5,90.5 66.5,90.5 64.5,90.5C 62.8333,90.5 61.1667,90.5 59.5,90.5C 59.6665,78.4954 59.4999,66.4954 59,54.5C 58.7216,53.5842 58.2216,52.9175 57.5,52.5C 57.5,49.1667 57.5,45.8333 57.5,42.5 Z"/></g>
<g><path style="opacity:1" fill="#929dab" d="M 20.5,41.5 C 20.8333,41.5 21.1667,41.5 21.5,41.5C 24.6248,42.4794 27.9581,42.8128 31.5,42.5C 31.5,66.8333 31.5,91.1667 31.5,115.5C 27.8333,115.5 24.1667,115.5 20.5,115.5C 21.4686,107.252 21.8019,98.9183 21.5,90.5C 24.5,90.5 27.5,90.5 30.5,90.5C 30.5,82.5 30.5,74.5 30.5,66.5C 26.8333,66.5 23.1667,66.5 19.5,66.5C 19.5,74.5 19.5,82.5 19.5,90.5C 18.1667,90.5 16.8333,90.5 15.5,90.5C 15.0674,80.8981 15.734,71.7314 17.5,63C 16.6246,57.8529 15.6246,52.6862 14.5,47.5C 14.6207,46.1055 14.954,44.7722 15.5,43.5C 17.2914,42.8302 18.9581,42.1635 20.5,41.5 Z"/></g>
<g><path style="opacity:1" fill="#c0c1bc" d="M 108.5,40.5 C 109.167,40.5 109.5,40.8333 109.5,41.5C 109.5,44.1667 109.5,46.8333 109.5,49.5C 107.035,51.314 104.368,52.6473 101.5,53.5C 101.5,55.1667 101.5,56.8333 101.5,58.5C 99.712,58.2148 98.0453,58.5481 96.5,59.5C 95.2214,61.1461 93.5547,62.3128 91.5,63C 90.1772,63.8159 89.5106,64.9826 89.5,66.5C 87.7085,66.634 86.0418,66.3007 84.5,65.5C 84.9196,57.3529 84.9196,49.3529 84.5,41.5C 89.8333,41.5 95.1667,41.5 100.5,41.5C 103.385,41.8064 106.052,41.4731 108.5,40.5 Z"/></g>
<g><path style="opacity:1" fill="#9aa3ac" d="M 34.5,41.5 C 34.8333,41.5 35.1667,41.5 35.5,41.5C 42.6476,42.4916 49.9809,42.825 57.5,42.5C 57.5,45.8333 57.5,49.1667 57.5,52.5C 57.5,52.8333 57.5,53.1667 57.5,53.5C 56.7784,53.9175 56.2784,54.5842 56,55.5C 55.0188,49.136 54.5188,49.4694 54.5,56.5C 53.325,56.281 52.325,56.6143 51.5,57.5C 48.7263,60.5183 46.0597,63.5183 43.5,66.5C 39.8333,66.5 36.1667,66.5 32.5,66.5C 31.9118,57.897 32.5785,49.5637 34.5,41.5 Z"/></g>
<g><path style="opacity:1" fill="#b0b2b2" d="M 82.5,38.5 C 84.0481,38.8212 84.7148,39.8212 84.5,41.5C 84.9196,49.3529 84.9196,57.3529 84.5,65.5C 84.5,75.5 84.5,85.5 84.5,95.5C 83.596,96.209 83.2627,97.209 83.5,98.5C 81.5,98.5 79.5,98.5 77.5,98.5C 77.5,79.5 77.5,60.5 77.5,41.5C 79.5273,41.6621 81.5273,41.4955 83.5,41C 82.7476,40.3292 82.4142,39.4959 82.5,38.5 Z"/></g>
<g><path style="opacity:1" fill="#b7bdc2" d="M 8.5,39.5 C 8.38929,40.1174 8.05596,40.6174 7.5,41C 9.4727,41.4955 11.4727,41.6621 13.5,41.5C 13.5,97.8333 13.5,154.167 13.5,210.5C 13.6716,211.492 13.3382,212.158 12.5,212.5C 13.1595,179.483 12.4929,146.816 10.5,114.5C 10.6666,92.8308 10.5,71.1641 10,49.5C 10.0302,46.6385 9.19686,44.3052 7.5,42.5C 6.66175,42.1583 6.32842,41.4916 6.5,40.5C 6.84171,39.6618 7.50838,39.3284 8.5,39.5 Z"/></g>
<g><path style="opacity:1" fill="#8898a7" d="M 21.5,90.5 C 20.8333,90.5 20.1667,90.5 19.5,90.5C 19.5,82.5 19.5,74.5 19.5,66.5C 23.1667,66.5 26.8333,66.5 30.5,66.5C 30.5,74.5 30.5,82.5 30.5,90.5C 27.5,90.5 24.5,90.5 21.5,90.5 Z"/></g>
<g><path style="opacity:1" fill="#929eaa" d="M 32.5,66.5 C 36.1667,66.5 39.8333,66.5 43.5,66.5C 44.1667,66.5 44.8333,66.5 45.5,66.5C 45.2174,74.5688 45.2174,82.5688 45.5,90.5C 44.1667,90.5 42.8333,90.5 41.5,90.5C 38.5,90.5 35.5,90.5 32.5,90.5C 32.5,82.5 32.5,74.5 32.5,66.5 Z"/></g>
<g><path style="opacity:1" fill="#b4b7b7" d="M 35.5,41.5 C 42.8333,41.5 50.1667,41.5 57.5,41.5C 63.8333,41.5 70.1667,41.5 76.5,41.5C 76.8323,98.0025 76.499,154.336 75.5,210.5C 75.6954,194.558 75.3621,178.558 74.5,162.5C 73.8165,162.863 73.1499,163.196 72.5,163.5C 71.9094,155.296 72.576,147.296 74.5,139.5C 73.9106,136.36 73.2439,133.36 72.5,130.5C 72.5,125.167 72.5,119.833 72.5,114.5C 72.1338,95.7284 72.9671,77.0617 75,58.5C 74.6667,59.5 74.3333,60.5 74,61.5C 73.94,57.5288 73.1067,54.5288 71.5,52.5C 72.4511,51.0813 72.7845,49.4147 72.5,47.5C 73.5,47.5 74.5,47.5 75.5,47.5C 75.5,46.1667 75.5,44.8333 75.5,43.5C 69.5451,42.6365 63.5451,42.3032 57.5,42.5C 49.9809,42.825 42.6476,42.4916 35.5,41.5 Z"/></g>
<g><path style="opacity:1" fill="#cac9c3" d="M 109.5,49.5 C 109.813,52.2469 109.48,54.9135 108.5,57.5C 105.78,58.4805 103.447,59.9805 101.5,62C 100.707,63.0852 100.04,64.2519 99.5,65.5C 100.956,77.7274 102.289,90.0607 103.5,102.5C 102.189,106.407 101.522,110.407 101.5,114.5C 103.677,114.586 105.677,115.253 107.5,116.5C 108.086,116.291 108.586,115.957 109,115.5C 109.5,131.497 109.667,147.497 109.5,163.5C 108.5,163.5 107.5,163.5 106.5,163.5C 105.791,162.596 104.791,162.263 103.5,162.5C 104.087,156.697 103.42,151.197 101.5,146C 103.847,144.914 103.847,143.581 101.5,142C 102.697,140.48 104.197,139.313 106,138.5C 106.14,127.892 105.307,127.892 103.5,138.5C 102.771,132.719 101.438,127.219 99.5,122C 102.139,117.741 100.805,115.241 95.5,114.5C 94.1667,106.5 92.8333,98.5 91.5,90.5C 93.5,90.5 95.5,90.5 97.5,90.5C 97.5,82.5 97.5,74.5 97.5,66.5C 94.8333,66.5 92.1667,66.5 89.5,66.5C 89.5106,64.9826 90.1772,63.8159 91.5,63C 93.5547,62.3128 95.2214,61.1461 96.5,59.5C 98.0453,58.5481 99.712,58.2148 101.5,58.5C 101.5,56.8333 101.5,55.1667 101.5,53.5C 104.368,52.6473 107.035,51.314 109.5,49.5 Z"/></g>
<g><path style="opacity:1" fill="#d6d4cd" d="M 109.5,41.5 C 110.499,98.3309 110.832,155.331 110.5,212.5C 109.504,196.342 109.17,180.009 109.5,163.5C 109.667,147.497 109.5,131.497 109,115.5C 108.586,115.957 108.086,116.291 107.5,116.5C 105.677,115.253 103.677,114.586 101.5,114.5C 101.522,110.407 102.189,106.407 103.5,102.5C 102.289,90.0607 100.956,77.7274 99.5,65.5C 100.04,64.2519 100.707,63.0852 101.5,62C 103.447,59.9805 105.78,58.4805 108.5,57.5C 109.48,54.9135 109.813,52.2469 109.5,49.5C 109.5,46.8333 109.5,44.1667 109.5,41.5 Z"/></g>
<g><path style="opacity:1" fill="#9aa4ad" d="M 32.5,90.5 C 35.5,90.5 38.5,90.5 41.5,90.5C 42.1667,98.5 42.8333,106.5 43.5,114.5C 45.1667,114.5 46.8333,114.5 48.5,114.5C 49.1667,114.5 49.8333,114.5 50.5,114.5C 54.1335,115.142 55.1335,117.142 53.5,120.5C 54.2618,124.111 54.7618,127.778 55,131.5C 55.3333,128.167 55.6667,124.833 56,121.5C 56.4995,127.491 56.6662,133.491 56.5,139.5C 52.8333,139.5 49.1667,139.5 45.5,139.5C 44.4257,130.791 44.4257,122.957 45.5,116C 41.096,114.555 36.7627,114.055 32.5,114.5C 32.5,106.5 32.5,98.5 32.5,90.5 Z"/></g>
<g><path style="opacity:1" fill="#9fa9b1" d="M 45.5,66.5 C 48.5,66.5 51.5,66.5 54.5,66.5C 54.5,74.5 54.5,82.5 54.5,90.5C 52.5,90.5 50.5,90.5 48.5,90.5C 48.159,98.4385 48.159,106.439 48.5,114.5C 46.8333,114.5 45.1667,114.5 43.5,114.5C 42.8333,106.5 42.1667,98.5 41.5,90.5C 42.8333,90.5 44.1667,90.5 45.5,90.5C 45.2174,82.5688 45.2174,74.5688 45.5,66.5 Z"/></g>
<g><path style="opacity:1" fill="#a5aeb5" d="M 57.5,53.5 C 57.5,74.1667 57.5,94.8333 57.5,115.5C 55.283,114.631 52.9496,114.298 50.5,114.5C 49.8333,114.5 49.1667,114.5 48.5,114.5C 48.159,106.439 48.159,98.4385 48.5,90.5C 50.5,90.5 52.5,90.5 54.5,90.5C 54.5,82.5 54.5,74.5 54.5,66.5C 51.5,66.5 48.5,66.5 45.5,66.5C 44.8333,66.5 44.1667,66.5 43.5,66.5C 46.0597,63.5183 48.7263,60.5183 51.5,57.5C 52.325,56.6143 53.325,56.281 54.5,56.5C 54.5188,49.4694 55.0188,49.136 56,55.5C 56.2784,54.5842 56.7784,53.9175 57.5,53.5 Z"/></g>
<g><path style="opacity:1" fill="#b1b8bc" d="M 71.5,52.5 C 73.1067,54.5288 73.94,57.5288 74,61.5C 74.3333,60.5 74.6667,59.5 75,58.5C 72.9671,77.0617 72.1338,95.7284 72.5,114.5C 69.8333,114.5 67.1667,114.5 64.5,114.5C 64.4778,110.407 63.8112,106.407 62.5,102.5C 63.8112,98.5932 64.4778,94.5932 64.5,90.5C 66.5,90.5 68.5,90.5 70.5,90.5C 70.5,82.5 70.5,74.5 70.5,66.5C 67.1501,66.665 63.8168,66.4983 60.5,66C 62.6133,61.7016 65.9466,59.2016 70.5,58.5C 70.0349,54.8966 70.3682,52.8966 71.5,52.5 Z"/></g>
<g><path style="opacity:1" fill="#bbbebf" d="M 77.5,99.5 C 79.5,99.5 81.5,99.5 83.5,99.5C 83.5,101.833 83.5,104.167 83.5,106.5C 81.5,106.5 79.5,106.5 77.5,106.5C 77.5,104.167 77.5,101.833 77.5,99.5 Z"/></g>
<g><path style="opacity:1" fill="#babdbe" d="M 77.5,107.5 C 79.5,107.5 81.5,107.5 83.5,107.5C 83.5,109.833 83.5,112.167 83.5,114.5C 81.5,114.5 79.5,114.5 77.5,114.5C 77.5,112.167 77.5,109.833 77.5,107.5 Z"/></g>
<g><path style="opacity:1" fill="#a5acaf" d="M 64.5,114.5 C 67.1667,114.5 69.8333,114.5 72.5,114.5C 72.5,119.833 72.5,125.167 72.5,130.5C 72.6646,133.518 72.498,136.518 72,139.5C 68.0451,139.371 63.8784,139.371 59.5,139.5C 59.5,131.167 59.5,122.833 59.5,114.5C 61.1667,114.5 62.8333,114.5 64.5,114.5 Z"/></g>
<g><path style="opacity:1" fill="#bfbfbc" d="M 84.5,65.5 C 86.0418,66.3007 87.7085,66.634 89.5,66.5C 92.1667,66.5 94.8333,66.5 97.5,66.5C 97.5,74.5 97.5,82.5 97.5,90.5C 95.5,90.5 93.5,90.5 91.5,90.5C 89.5,90.5 87.5,90.5 85.5,90.5C 85.5,95.8333 85.5,101.167 85.5,106.5C 86.8333,106.5 88.1667,106.5 89.5,106.5C 89.1866,109.247 89.52,111.914 90.5,114.5C 92.6414,115.808 94.6414,117.308 96.5,119C 95.8333,120 95.1667,121 94.5,122C 95.4438,124.719 95.7771,127.552 95.5,130.5C 96.5,130.5 97.5,130.5 98.5,130.5C 98.5,133.5 98.5,136.5 98.5,139.5C 96.7839,139.629 95.1172,139.962 93.5,140.5C 92.0345,135.251 90.7012,129.918 89.5,124.5C 91.1329,122.613 90.7996,121.113 88.5,120C 91.2442,116.538 90.2442,115.038 85.5,115.5C 85.7947,113.265 85.4614,111.265 84.5,109.5C 84.5,104.833 84.5,100.167 84.5,95.5C 84.5,85.5 84.5,75.5 84.5,65.5 Z"/></g>
<g><path style="opacity:1" fill="#8594a2" d="M 20.5,115.5 C 24.1667,115.5 27.8333,115.5 31.5,115.5C 31.5,123.5 31.5,131.5 31.5,139.5C 27.5,139.5 23.5,139.5 19.5,139.5C 16.1075,139.625 14.7741,137.958 15.5,134.5C 15.8847,130.243 16.5514,126.076 17.5,122C 17.0563,120.467 16.723,118.967 16.5,117.5C 17.3202,115.889 18.6536,115.222 20.5,115.5 Z"/></g>
<g><path style="opacity:1" fill="#afb9c4" d="M 21.5,41.5 C 24.8333,41.5 28.1667,41.5 31.5,41.5C 32.5,41.5 33.5,41.5 34.5,41.5C 32.5785,49.5637 31.9118,57.897 32.5,66.5C 32.5,74.5 32.5,82.5 32.5,90.5C 32.5,98.5 32.5,106.5 32.5,114.5C 32.5,130.833 32.5,147.167 32.5,163.5C 32.8181,180.244 32.4848,196.911 31.5,213.5C 31.1667,213.5 30.8333,213.5 30.5,213.5C 31.4706,197.214 31.8039,180.881 31.5,164.5C 31.5,156.167 31.5,147.833 31.5,139.5C 31.5,131.5 31.5,123.5 31.5,115.5C 31.5,91.1667 31.5,66.8333 31.5,42.5C 27.9581,42.8128 24.6248,42.4794 21.5,41.5 Z"/></g>
<g><path style="opacity:1" fill="#8e9aa6" d="M 32.5,114.5 C 36.7627,114.055 41.096,114.555 45.5,116C 44.4257,122.957 44.4257,130.791 45.5,139.5C 42.1667,139.5 38.8333,139.5 35.5,139.5C 35.3336,147.174 35.5003,154.841 36,162.5C 37.9483,163.109 39.7816,163.776 41.5,164.5C 40.8333,164.5 40.1667,164.5 39.5,164.5C 37.0971,164.552 34.7638,164.219 32.5,163.5C 32.5,147.167 32.5,130.833 32.5,114.5 Z"/></g>
<g><path style="opacity:1" fill="#9aa5af" d="M 16.5,38.5 C 16.0472,39.4584 15.3805,40.2917 14.5,41C 16.4727,41.4955 18.4727,41.6621 20.5,41.5C 18.9581,42.1635 17.2914,42.8302 15.5,43.5C 14.954,44.7722 14.6207,46.1055 14.5,47.5C 15.6246,52.6862 16.6246,57.8529 17.5,63C 15.734,71.7314 15.0674,80.8981 15.5,90.5C 16.8333,90.5 18.1667,90.5 19.5,90.5C 20.1667,90.5 20.8333,90.5 21.5,90.5C 21.8019,98.9183 21.4686,107.252 20.5,115.5C 18.6536,115.222 17.3202,115.889 16.5,117.5C 16.723,118.967 17.0563,120.467 17.5,122C 16.5514,126.076 15.8847,130.243 15.5,134.5C 14.7741,137.958 16.1075,139.625 19.5,139.5C 19.2448,147.434 19.5782,155.434 20.5,163.5C 20.1667,163.5 19.8333,163.5 19.5,163.5C 17.8561,163.286 16.3561,163.62 15,164.5C 14.7499,179.5 14.9165,194.5 15.5,209.5C 15.1583,210.338 14.4916,210.672 13.5,210.5C 13.5,154.167 13.5,97.8333 13.5,41.5C 13.5,39.5 14.5,38.5 16.5,38.5 Z"/></g>
<g><path style="opacity:1" fill="#c4c3bf" d="M 91.5,90.5 C 92.8333,98.5 94.1667,106.5 95.5,114.5C 100.805,115.241 102.139,117.741 99.5,122C 101.438,127.219 102.771,132.719 103.5,138.5C 105.307,127.892 106.14,127.892 106,138.5C 104.197,139.313 102.697,140.48 101.5,142C 103.847,143.581 103.847,144.914 101.5,146C 103.42,151.197 104.087,156.697 103.5,162.5C 104.791,162.263 105.791,162.596 106.5,163.5C 105.883,163.611 105.383,163.944 105,164.5C 104.32,222.847 103.32,222.847 102,164.5C 101.329,163.748 100.496,163.414 99.5,163.5C 98.1779,163.67 97.0113,163.337 96,162.5C 95.4058,158.289 94.5724,154.122 93.5,150C 93.3049,147.648 93.9716,145.648 95.5,144C 93.0614,143.467 92.3948,142.3 93.5,140.5C 95.1172,139.962 96.7839,139.629 98.5,139.5C 98.5,136.5 98.5,133.5 98.5,130.5C 97.5,130.5 96.5,130.5 95.5,130.5C 95.7771,127.552 95.4438,124.719 94.5,122C 95.1667,121 95.8333,120 96.5,119C 94.6414,117.308 92.6414,115.808 90.5,114.5C 89.52,111.914 89.1866,109.247 89.5,106.5C 88.1667,106.5 86.8333,106.5 85.5,106.5C 85.5,101.167 85.5,95.8333 85.5,90.5C 87.5,90.5 89.5,90.5 91.5,90.5 Z"/></g>
<g><path style="opacity:0.859" fill="#e8e8e8" d="M 5.5,41.5 C 6.6171,97.8254 6.6171,154.159 5.5,210.5C 5.44312,211.609 5.10978,212.609 4.5,213.5C 3.52333,216.287 3.19,219.287 3.5,222.5C 8.16667,222.5 12.8333,222.5 17.5,222.5C 21.8333,222.5 26.1667,222.5 30.5,222.5C 26.0124,223.166 21.3457,223.499 16.5,223.5C 11.3291,223.644 6.32907,223.144 1.5,222C 2.04438,218.397 2.87771,214.897 4,211.5C 4.16717,154.665 4.66717,97.9985 5.5,41.5 Z"/></g>
<g><path style="opacity:1" fill="#adb4b9" d="M 57.5,52.5 C 58.2216,52.9175 58.7216,53.5842 59,54.5C 59.4999,66.4954 59.6665,78.4954 59.5,90.5C 61.1667,90.5 62.8333,90.5 64.5,90.5C 64.4778,94.5932 63.8112,98.5932 62.5,102.5C 63.8112,106.407 64.4778,110.407 64.5,114.5C 62.8333,114.5 61.1667,114.5 59.5,114.5C 59.5,122.833 59.5,131.167 59.5,139.5C 59.5,147.167 59.5,154.833 59.5,162.5C 59.5,179.5 59.5,196.5 59.5,213.5C 58.8333,213.5 58.1667,213.5 57.5,213.5C 57.5,197.167 57.5,180.833 57.5,164.5C 57.5,148.167 57.5,131.833 57.5,115.5C 57.5,94.8333 57.5,74.1667 57.5,53.5C 57.5,53.1667 57.5,52.8333 57.5,52.5 Z"/></g>
<g><path style="opacity:1" fill="#bcbbb9" d="M 84.5,109.5 C 85.4614,111.265 85.7947,113.265 85.5,115.5C 90.2442,115.038 91.2442,116.538 88.5,120C 90.7996,121.113 91.1329,122.613 89.5,124.5C 90.7012,129.918 92.0345,135.251 93.5,140.5C 92.3948,142.3 93.0614,143.467 95.5,144C 93.9716,145.648 93.3049,147.648 93.5,150C 94.5724,154.122 95.4058,158.289 96,162.5C 97.0113,163.337 98.1779,163.67 99.5,163.5C 98.791,164.404 97.791,164.737 96.5,164.5C 92.9957,164.927 89.329,164.927 85.5,164.5C 85.5,163.833 85.1667,163.5 84.5,163.5C 84.7971,145.812 84.7971,127.812 84.5,109.5 Z"/></g>
<g><path style="opacity:1" fill="#acadad" d="M 84.5,95.5 C 84.5,100.167 84.5,104.833 84.5,109.5C 84.7971,127.812 84.7971,145.812 84.5,163.5C 82.1667,163.5 79.8333,163.5 77.5,163.5C 77.5,147.167 77.5,130.833 77.5,114.5C 79.5,114.5 81.5,114.5 83.5,114.5C 83.5,112.167 83.5,109.833 83.5,107.5C 81.5,107.5 79.5,107.5 77.5,107.5C 77.5,107.167 77.5,106.833 77.5,106.5C 79.5,106.5 81.5,106.5 83.5,106.5C 83.5,104.167 83.5,101.833 83.5,99.5C 81.5,99.5 79.5,99.5 77.5,99.5C 77.5,99.1667 77.5,98.8333 77.5,98.5C 79.5,98.5 81.5,98.5 83.5,98.5C 83.2627,97.209 83.596,96.209 84.5,95.5 Z"/></g>
<g><path style="opacity:1" fill="#d8d9d9" d="M 6.5,40.5 C 6.32842,41.4916 6.66175,42.1583 7.5,42.5C 8.04574,95.821 8.04574,149.154 7.5,202.5C 8.03562,205.698 7.36895,208.365 5.5,210.5C 6.6171,154.159 6.6171,97.8254 5.5,41.5C 5.5,40.8333 5.83333,40.5 6.5,40.5 Z"/></g>
<g><path style="opacity:1" fill="#8e99a8" d="M 19.5,139.5 C 23.5,139.5 27.5,139.5 31.5,139.5C 31.5,147.833 31.5,156.167 31.5,164.5C 31.1667,164.5 30.8333,164.5 30.5,164.5C 27.3752,163.521 24.0419,163.187 20.5,163.5C 19.5782,155.434 19.2448,147.434 19.5,139.5 Z"/></g>
<g><path style="opacity:1" fill="#9fa7ae" d="M 50.5,114.5 C 52.9496,114.298 55.283,114.631 57.5,115.5C 57.5,131.833 57.5,148.167 57.5,164.5C 56.5,163.167 55.5,163.167 54.5,164.5C 54.631,163.761 54.4643,163.094 54,162.5C 51.2258,163.523 48.3925,163.523 45.5,162.5C 45.6659,157.489 45.4993,152.489 45,147.5C 42.6349,146.711 40.4682,145.544 38.5,144C 44.7317,143.186 44.3984,142.186 37.5,141C 40.3647,140.817 43.0314,140.317 45.5,139.5C 49.1667,139.5 52.8333,139.5 56.5,139.5C 56.6662,133.491 56.4995,127.491 56,121.5C 55.6667,124.833 55.3333,128.167 55,131.5C 54.7618,127.778 54.2618,124.111 53.5,120.5C 55.1335,117.142 54.1335,115.142 50.5,114.5 Z"/></g>
<g><path style="opacity:1" fill="#c6c9ca" d="M 7.5,42.5 C 9.19686,44.3052 10.0302,46.6385 10,49.5C 10.5,71.1641 10.6666,92.8308 10.5,114.5C 9.6599,143.838 8.6599,173.171 7.5,202.5C 8.04574,149.154 8.04574,95.821 7.5,42.5 Z"/></g>
<g><path style="opacity:1" fill="#b3b7ba" d="M 10.5,114.5 C 12.4929,146.816 13.1595,179.483 12.5,212.5C 11.8333,212.5 11.5,212.833 11.5,213.5C 11.5,216.167 11.5,218.833 11.5,221.5C 13.5,221.5 15.5,221.5 17.5,221.5C 17.5,221.833 17.5,222.167 17.5,222.5C 12.8333,222.5 8.16667,222.5 3.5,222.5C 3.19,219.287 3.52333,216.287 4.5,213.5C 5.10978,212.609 5.44312,211.609 5.5,210.5C 7.36895,208.365 8.03562,205.698 7.5,202.5C 8.6599,173.171 9.6599,143.838 10.5,114.5 Z"/></g>
<g><path style="opacity:1" fill="#a8afb3" d="M 72.5,130.5 C 73.2439,133.36 73.9106,136.36 74.5,139.5C 72.576,147.296 71.9094,155.296 72.5,163.5C 71.7387,164.391 70.7387,165.058 69.5,165.5C 65.9261,165.085 62.5927,164.085 59.5,162.5C 59.5,154.833 59.5,147.167 59.5,139.5C 63.8784,139.371 68.0451,139.371 72,139.5C 72.498,136.518 72.6646,133.518 72.5,130.5 Z"/></g>
<g><path style="opacity:1" fill="#8a96a2" d="M 19.5,163.5 C 19.6881,169.199 19.3548,174.866 18.5,180.5C 18.8417,182.867 19.3417,185.2 20,187.5C 23.0567,188.451 26.2234,188.784 29.5,188.5C 29.5,189.5 29.5,190.5 29.5,191.5C 28.1667,191.5 26.8333,191.5 25.5,191.5C 25.5,192.5 25.5,193.5 25.5,194.5C 23.8333,194.5 22.1667,194.5 20.5,194.5C 20.2627,198.722 20.596,202.889 21.5,207C 20.0558,209.034 18.0558,209.868 15.5,209.5C 14.9165,194.5 14.7499,179.5 15,164.5C 16.3561,163.62 17.8561,163.286 19.5,163.5 Z"/></g>
<g><path style="opacity:1" fill="#939da6" d="M 45.5,139.5 C 43.0314,140.317 40.3647,140.817 37.5,141C 44.3984,142.186 44.7317,143.186 38.5,144C 40.4682,145.544 42.6349,146.711 45,147.5C 45.4993,152.489 45.6659,157.489 45.5,162.5C 48.3925,163.523 51.2258,163.523 54,162.5C 54.4643,163.094 54.631,163.761 54.5,164.5C 54.5,172.167 54.5,179.833 54.5,187.5C 51.9591,188.103 49.6257,188.103 47.5,187.5C 48.2389,187.631 48.9056,187.464 49.5,187C 48.7344,180.878 47.401,174.878 45.5,169C 45.6448,168.228 45.9781,167.561 46.5,167C 44.9221,165.906 43.2554,165.072 41.5,164.5C 39.7816,163.776 37.9483,163.109 36,162.5C 35.5003,154.841 35.3336,147.174 35.5,139.5C 38.8333,139.5 42.1667,139.5 45.5,139.5 Z"/></g>
<g><path style="opacity:1" fill="#b4b4b1" d="M 85.5,164.5 C 89.329,164.927 92.9957,164.927 96.5,164.5C 99.1251,165.441 99.1251,166.607 96.5,168C 98.3348,168.928 98.6682,170.094 97.5,171.5C 98.4465,173.059 99.1132,174.726 99.5,176.5C 98.673,179.783 98.3396,183.116 98.5,186.5C 99.552,186.351 100.552,186.517 101.5,187C 98.8791,187.939 96.2125,188.772 93.5,189.5C 93.8333,190.167 94.1667,190.833 94.5,191.5C 92.6957,192.768 90.6957,193.435 88.5,193.5C 88.5,194.5 88.5,195.5 88.5,196.5C 87.8354,198.369 87.1687,200.369 86.5,202.5C 85.8165,202.137 85.1499,201.804 84.5,201.5C 84.2702,189.15 84.6036,176.817 85.5,164.5 Z"/></g>
<g><path style="opacity:1" fill="#9aa0a2" d="M 76.5,41.5 C 76.8333,41.5 77.1667,41.5 77.5,41.5C 77.5,60.5 77.5,79.5 77.5,98.5C 77.5,98.8333 77.5,99.1667 77.5,99.5C 77.5,101.833 77.5,104.167 77.5,106.5C 77.5,106.833 77.5,107.167 77.5,107.5C 77.5,109.833 77.5,112.167 77.5,114.5C 77.5,130.833 77.5,147.167 77.5,163.5C 77.5,179.5 77.5,195.5 77.5,211.5C 76.1266,211.343 74.7932,211.51 73.5,212C 74.056,212.383 74.3893,212.883 74.5,213.5C 69.5,213.5 64.5,213.5 59.5,213.5C 59.5,196.5 59.5,179.5 59.5,162.5C 62.5927,164.085 65.9261,165.085 69.5,165.5C 70.7387,165.058 71.7387,164.391 72.5,163.5C 72.9174,173.616 72.0841,183.616 70,193.5C 68.1598,194.833 67.6598,194.666 68.5,193C 68,192.5 67.5,192 67,191.5C 66.5814,192.672 65.9147,193.672 65,194.5C 64.2588,193.359 63.4255,193.359 62.5,194.5C 62.0896,199.517 61.7562,204.517 61.5,209.5C 66.1811,209.669 70.8478,210.002 75.5,210.5C 76.499,154.336 76.8323,98.0025 76.5,41.5 Z"/></g>
<g><path style="opacity:1" fill="#7e8e9c" d="M 19.5,163.5 C 19.8333,163.5 20.1667,163.5 20.5,163.5C 24.0419,163.187 27.3752,163.521 30.5,164.5C 30.8005,172.586 30.4672,180.586 29.5,188.5C 26.2234,188.784 23.0567,188.451 20,187.5C 19.3417,185.2 18.8417,182.867 18.5,180.5C 19.3548,174.866 19.6881,169.199 19.5,163.5 Z"/></g>
<g><path style="opacity:1" fill="#a8a9aa" d="M 77.5,163.5 C 79.8333,163.5 82.1667,163.5 84.5,163.5C 85.1667,163.5 85.5,163.833 85.5,164.5C 84.6036,176.817 84.2702,189.15 84.5,201.5C 84.6054,205.548 84.2721,209.548 83.5,213.5C 80.5,213.5 77.5,213.5 74.5,213.5C 74.3893,212.883 74.056,212.383 73.5,212C 74.7932,211.51 76.1266,211.343 77.5,211.5C 77.5,195.5 77.5,179.5 77.5,163.5 Z"/></g>
<g><path style="opacity:1" fill="#8f99a3" d="M 39.5,164.5 C 40.1667,164.5 40.8333,164.5 41.5,164.5C 43.2554,165.072 44.9221,165.906 46.5,167C 45.9781,167.561 45.6448,168.228 45.5,169C 47.401,174.878 48.7344,180.878 49.5,187C 48.9056,187.464 48.2389,187.631 47.5,187.5C 45.4885,188.228 43.4885,189.062 41.5,190C 44.028,191.316 44.028,192.483 41.5,193.5C 42.6283,194.262 43.7949,194.929 45,195.5C 45.2256,198.095 45.7256,200.595 46.5,203C 45.1854,204.395 45.5188,205.395 47.5,206C 45.8225,206.484 45.1558,207.317 45.5,208.5C 42.5832,207.709 39.7499,207.709 37,208.5C 36.5004,201.508 36.3337,194.508 36.5,187.5C 39.1873,187.664 41.854,187.497 44.5,187C 42.7954,180.918 41.7954,174.585 41.5,168C 41.6448,167.228 41.9781,166.561 42.5,166C 41.2625,165.768 40.2625,165.268 39.5,164.5 Z"/></g>
<g><path style="opacity:1" fill="#979fa6" d="M 57.5,164.5 C 57.5,180.833 57.5,197.167 57.5,213.5C 56.8333,213.5 56.1667,213.5 55.5,213.5C 52.6946,212.681 49.6946,212.181 46.5,212C 47.1667,211.667 47.8333,211.333 48.5,211C 47.0577,210.623 46.0577,209.79 45.5,208.5C 45.1558,207.317 45.8225,206.484 47.5,206C 45.5188,205.395 45.1854,204.395 46.5,203C 45.7256,200.595 45.2256,198.095 45,195.5C 43.7949,194.929 42.6283,194.262 41.5,193.5C 44.028,192.483 44.028,191.316 41.5,190C 43.4885,189.062 45.4885,188.228 47.5,187.5C 49.6257,188.103 51.9591,188.103 54.5,187.5C 54.5,179.833 54.5,172.167 54.5,164.5C 55.5,163.167 56.5,163.167 57.5,164.5 Z"/></g>
<g><path style="opacity:1" fill="#bdbcb7" d="M 99.5,163.5 C 100.496,163.414 101.329,163.748 102,164.5C 103.32,222.847 104.32,222.847 105,164.5C 105.383,163.944 105.883,163.611 106.5,163.5C 107.5,163.5 108.5,163.5 109.5,163.5C 109.17,180.009 109.504,196.342 110.5,212.5C 112.402,215.337 113.069,218.671 112.5,222.5C 107.167,222.5 101.833,222.5 96.5,222.5C 96.5,222.167 96.5,221.833 96.5,221.5C 97.5,221.5 98.5,221.5 99.5,221.5C 103.5,221.5 107.5,221.5 111.5,221.5C 111.5,218.833 111.5,216.167 111.5,213.5C 108.167,213.5 104.833,213.5 101.5,213.5C 101.5,212.5 101.5,211.5 101.5,210.5C 97.1968,210.259 93.1968,209.092 89.5,207C 94.8903,204.588 94.557,203.088 88.5,202.5C 88.5,200.5 88.5,198.5 88.5,196.5C 88.5,195.5 88.5,194.5 88.5,193.5C 90.6957,193.435 92.6957,192.768 94.5,191.5C 94.1667,190.833 93.8333,190.167 93.5,189.5C 96.2125,188.772 98.8791,187.939 101.5,187C 100.552,186.517 99.552,186.351 98.5,186.5C 98.3396,183.116 98.673,179.783 99.5,176.5C 99.1132,174.726 98.4465,173.059 97.5,171.5C 98.6682,170.094 98.3348,168.928 96.5,168C 99.1251,166.607 99.1251,165.441 96.5,164.5C 97.791,164.737 98.791,164.404 99.5,163.5 Z"/></g>
<g><path style="opacity:1" fill="#8a939d" d="M 32.5,163.5 C 34.7638,164.219 37.0971,164.552 39.5,164.5C 40.2625,165.268 41.2625,165.768 42.5,166C 41.9781,166.561 41.6448,167.228 41.5,168C 41.7954,174.585 42.7954,180.918 44.5,187C 41.854,187.497 39.1873,187.664 36.5,187.5C 36.3337,194.508 36.5004,201.508 37,208.5C 39.7499,207.709 42.5832,207.709 45.5,208.5C 46.0577,209.79 47.0577,210.623 48.5,211C 47.8333,211.333 47.1667,211.667 46.5,212C 49.6946,212.181 52.6946,212.681 55.5,213.5C 51.5,213.5 47.5,213.5 43.5,213.5C 39.5,213.5 35.5,213.5 31.5,213.5C 32.4848,196.911 32.8181,180.244 32.5,163.5 Z"/></g>
<g><path style="opacity:1" fill="#88929d" d="M 30.5,164.5 C 30.8333,164.5 31.1667,164.5 31.5,164.5C 31.8039,180.881 31.4706,197.214 30.5,213.5C 26.8333,213.5 23.1667,213.5 19.5,213.5C 16.8333,213.5 14.1667,213.5 11.5,213.5C 11.5,212.833 11.8333,212.5 12.5,212.5C 13.3382,212.158 13.6716,211.492 13.5,210.5C 14.4916,210.672 15.1583,210.338 15.5,209.5C 18.0558,209.868 20.0558,209.034 21.5,207C 20.596,202.889 20.2627,198.722 20.5,194.5C 22.1667,194.5 23.8333,194.5 25.5,194.5C 25.5,193.5 25.5,192.5 25.5,191.5C 26.8333,191.5 28.1667,191.5 29.5,191.5C 29.5,190.5 29.5,189.5 29.5,188.5C 30.4672,180.586 30.8005,172.586 30.5,164.5 Z"/></g>
<g><path style="opacity:1" fill="#a5a8ac" d="M 75.5,210.5 C 70.8478,210.002 66.1811,209.669 61.5,209.5C 61.7562,204.517 62.0896,199.517 62.5,194.5C 63.4255,193.359 64.2588,193.359 65,194.5C 65.9147,193.672 66.5814,192.672 67,191.5C 67.5,192 68,192.5 68.5,193C 67.6598,194.666 68.1598,194.833 70,193.5C 72.0841,183.616 72.9174,173.616 72.5,163.5C 73.1499,163.196 73.8165,162.863 74.5,162.5C 75.3621,178.558 75.6954,194.558 75.5,210.5 Z"/></g>
<g><path style="opacity:1" fill="#adadac" d="M 88.5,196.5 C 88.5,198.5 88.5,200.5 88.5,202.5C 94.557,203.088 94.8903,204.588 89.5,207C 93.1968,209.092 97.1968,210.259 101.5,210.5C 101.5,211.5 101.5,212.5 101.5,213.5C 104.833,213.5 108.167,213.5 111.5,213.5C 111.5,216.167 111.5,218.833 111.5,221.5C 107.5,221.5 103.5,221.5 99.5,221.5C 99.4894,219.983 98.8228,218.816 97.5,218C 98.8333,217.667 100.167,217.333 101.5,217C 98.8333,216.667 96.1667,216.333 93.5,216C 98.8333,215.333 98.8333,214.667 93.5,214C 91.1902,213.503 88.8568,213.337 86.5,213.5C 86.5,216.167 86.5,218.833 86.5,221.5C 89.8333,221.5 93.1667,221.5 96.5,221.5C 96.5,221.833 96.5,222.167 96.5,222.5C 90.8374,223.494 85.5041,223.494 80.5,222.5C 80.5,222.167 80.5,221.833 80.5,221.5C 82.1667,221.5 83.8333,221.5 85.5,221.5C 86.0356,218.302 85.369,215.635 83.5,213.5C 84.2721,209.548 84.6054,205.548 84.5,201.5C 85.1499,201.804 85.8165,202.137 86.5,202.5C 87.1687,200.369 87.8354,198.369 88.5,196.5 Z"/></g>
<g><path style="opacity:1" fill="#5b5b5b" d="M 11.5,213.5 C 14.1667,213.5 16.8333,213.5 19.5,213.5C 19.7564,215.792 19.4231,217.959 18.5,220C 19.7375,220.232 20.7375,220.732 21.5,221.5C 20.1667,221.5 18.8333,221.5 17.5,221.5C 15.5,221.5 13.5,221.5 11.5,221.5C 11.5,218.833 11.5,216.167 11.5,213.5 Z"/></g>
<g><path style="opacity:1" fill="#3c3c3d" d="M 19.5,213.5 C 23.1667,213.5 26.8333,213.5 30.5,213.5C 30.5,216.167 30.5,218.833 30.5,221.5C 27.5,221.5 24.5,221.5 21.5,221.5C 20.7375,220.732 19.7375,220.232 18.5,220C 19.4231,217.959 19.7564,215.792 19.5,213.5 Z"/></g>
<g><path style="opacity:1" fill="#4d4d4f" d="M 43.5,213.5 C 47.5,213.5 51.5,213.5 55.5,213.5C 56.1667,213.5 56.8333,213.5 57.5,213.5C 57.5,216.167 57.5,218.833 57.5,221.5C 50.5,221.5 43.5,221.5 36.5,221.5C 39.3054,220.681 42.3054,220.181 45.5,220C 41.0684,219.377 40.7351,218.377 44.5,217C 43.6634,215.989 43.33,214.822 43.5,213.5 Z"/></g>
<g><path style="opacity:1" fill="#828282" d="M 4.5,213.5 C 6.5,213.5 8.5,213.5 10.5,213.5C 10.5,216.167 10.5,218.833 10.5,221.5C 8.83333,221.5 7.16667,221.5 5.5,221.5C 5.72137,218.721 5.38803,216.054 4.5,213.5 Z"/></g>
<g><path style="opacity:1" fill="#3d3d3c" d="M 31.5,213.5 C 35.5,213.5 39.5,213.5 43.5,213.5C 43.33,214.822 43.6634,215.989 44.5,217C 40.7351,218.377 41.0684,219.377 45.5,220C 42.3054,220.181 39.3054,220.681 36.5,221.5C 34.8333,221.5 33.1667,221.5 31.5,221.5C 31.5,218.833 31.5,216.167 31.5,213.5 Z"/></g>
<g><path style="opacity:1" fill="#8b8b8b" d="M 99.5,221.5 C 98.5,221.5 97.5,221.5 96.5,221.5C 93.1667,221.5 89.8333,221.5 86.5,221.5C 86.5,218.833 86.5,216.167 86.5,213.5C 88.8568,213.337 91.1902,213.503 93.5,214C 98.8333,214.667 98.8333,215.333 93.5,216C 96.1667,216.333 98.8333,216.667 101.5,217C 100.167,217.333 98.8333,217.667 97.5,218C 98.8228,218.816 99.4894,219.983 99.5,221.5 Z"/></g>
<g><path style="opacity:1" fill="#6c6b6b" d="M 57.5,213.5 C 58.1667,213.5 58.8333,213.5 59.5,213.5C 64.5,213.5 69.5,213.5 74.5,213.5C 77.5,213.5 80.5,213.5 83.5,213.5C 85.369,215.635 86.0356,218.302 85.5,221.5C 83.8333,221.5 82.1667,221.5 80.5,221.5C 72.8333,221.5 65.1667,221.5 57.5,221.5C 57.5,218.833 57.5,216.167 57.5,213.5 Z"/></g>
<g><path style="opacity:1" fill="#abadae" d="M 30.5,213.5 C 30.8333,213.5 31.1667,213.5 31.5,213.5C 31.5,216.167 31.5,218.833 31.5,221.5C 33.1667,221.5 34.8333,221.5 36.5,221.5C 43.5,221.5 50.5,221.5 57.5,221.5C 65.1667,221.5 72.8333,221.5 80.5,221.5C 80.5,221.833 80.5,222.167 80.5,222.5C 63.9312,223.824 47.2645,223.824 30.5,222.5C 26.1667,222.5 21.8333,222.5 17.5,222.5C 17.5,222.167 17.5,221.833 17.5,221.5C 18.8333,221.5 20.1667,221.5 21.5,221.5C 24.5,221.5 27.5,221.5 30.5,221.5C 30.5,218.833 30.5,216.167 30.5,213.5 Z"/></g>
</svg>
